# Blender v3.2.2 OBJ File: 'feijao.blend'
# www.blender.org
mtllib lata.mtl
o Cylinder
v -0.001341 0.107748 -0.165685
v -0.001341 0.526439 -0.165685
v 0.030983 0.526439 -0.162501
v 0.030983 0.107748 -0.162501
v 0.062064 0.526439 -0.153073
v 0.062064 0.107748 -0.153073
v 0.090709 0.526439 -0.137762
v 0.090709 0.107748 -0.137762
v 0.115816 0.526439 -0.117157
v 0.115816 0.107748 -0.117157
v 0.136421 0.526439 -0.092049
v 0.136421 0.107748 -0.092049
v 0.151732 0.526439 -0.063405
v 0.151732 0.107748 -0.063405
v 0.161161 0.526439 -0.032323
v 0.161161 0.107748 -0.032323
v 0.164344 0.526439 0.000000
v 0.164344 0.107748 0.000000
v 0.161161 0.526439 0.032323
v 0.161161 0.107748 0.032323
v 0.151732 0.526439 0.063405
v 0.151732 0.107748 0.063405
v 0.136421 0.526439 0.092049
v 0.136421 0.107748 0.092049
v 0.115816 0.526439 0.117157
v 0.115816 0.107748 0.117157
v 0.090709 0.526439 0.137762
v 0.090709 0.107748 0.137762
v 0.062064 0.526439 0.153073
v 0.062064 0.107748 0.153073
v 0.030983 0.526439 0.162501
v 0.030983 0.107748 0.162501
v -0.001341 0.526439 0.165685
v -0.001341 0.107748 0.165685
v -0.033664 0.526439 0.162501
v -0.033664 0.107748 0.162501
v -0.064745 0.526439 0.153073
v -0.064745 0.107748 0.153073
v -0.093390 0.526439 0.137762
v -0.093390 0.107748 0.137762
v -0.118497 0.526439 0.117157
v -0.118497 0.107748 0.117157
v -0.139102 0.526439 0.092049
v -0.139102 0.107748 0.092049
v -0.154413 0.526439 0.063405
v -0.154413 0.107748 0.063405
v -0.163842 0.526439 0.032323
v -0.163842 0.107748 0.032323
v -0.167025 0.526439 0.000000
v -0.167025 0.107748 0.000000
v -0.163842 0.526439 -0.032324
v -0.163842 0.107748 -0.032324
v -0.154413 0.526439 -0.063405
v -0.154413 0.107748 -0.063405
v -0.139102 0.526439 -0.092050
v -0.139102 0.107748 -0.092050
v -0.118497 0.526439 -0.117157
v -0.118497 0.107748 -0.117157
v -0.093390 0.526439 -0.137762
v -0.093390 0.107748 -0.137762
v -0.064745 0.526439 -0.153073
v -0.064745 0.107748 -0.153073
v -0.033664 0.526439 -0.162501
v -0.033664 0.107748 -0.162501
v 0.237197 0.217068 -0.044459
v 0.237197 0.314947 -0.044459
v 0.274502 0.314947 -0.058036
v 0.274502 0.217068 -0.058036
v 0.331656 0.217068 -0.010078
v 0.331656 0.314947 -0.010078
v 0.324763 0.314947 0.029018
v 0.324763 0.217068 0.029018
v 0.294351 0.314947 0.054536
v 0.294351 0.217068 0.054536
v 0.254652 0.314947 0.054536
v 0.254652 0.217068 0.054536
v 0.224241 0.314947 0.029018
v 0.224241 0.217068 0.029018
v 0.217347 0.314947 -0.010078
v 0.217347 0.217068 -0.010078
v 0.311807 0.314947 -0.044459
v 0.254367 0.396829 -0.058036
v 0.287250 0.414447 -0.044459
v 0.311807 0.217068 -0.044459
v 0.221485 0.379211 -0.044459
v 0.193658 0.411959 -0.044459
v 0.207640 0.446545 -0.058036
v 0.304747 0.423821 -0.010078
v 0.298670 0.420565 0.029018
v 0.203988 0.369836 -0.010078
v 0.210065 0.373092 0.029018
v 0.236871 0.387454 0.054536
v 0.271864 0.406203 0.054536
v 0.186218 0.393557 -0.010078
v 0.147645 0.397764 -0.010078
v 0.147293 0.417611 -0.044459
v 0.200201 0.428142 0.054536
v 0.188802 0.399948 0.029018
v 0.229062 0.499533 -0.010078
v 0.226479 0.493142 0.029018
v 0.215080 0.464948 0.054536
v 0.221623 0.481131 -0.044459
v 0.145968 0.492209 -0.044459
v 0.146630 0.454910 -0.058036
v 0.147523 0.404657 0.029018
v 0.146983 0.435063 0.054536
v 0.146278 0.474756 0.054536
v 0.145737 0.505163 0.029018
v 0.145615 0.512056 -0.010078
v 0.313809 0.238862 -0.029627
v 0.288950 0.238862 -0.038675
v 0.327037 0.238862 -0.006716
v 0.322443 0.238862 0.019337
v 0.302177 0.238862 0.036342
v 0.275722 0.238862 0.036342
v 0.255456 0.238862 0.019337
v 0.250863 0.238862 -0.006716
v 0.264090 0.238862 -0.029627
vt 0.632340 0.265713
vt 0.633904 0.583929
vt 0.609168 0.584734
vt 0.607598 0.265151
vt 0.584327 0.585540
vt 0.582750 0.264590
vt 0.559380 0.586346
vt 0.557796 0.264029
vt 0.534326 0.587152
vt 0.532736 0.263469
vt 0.509167 0.587959
vt 0.507569 0.262909
vt 0.483902 0.588767
vt 0.482298 0.262350
vt 0.458530 0.589575
vt 0.456919 0.261791
vt 0.433053 0.590384
vt 0.431435 0.261233
vt 0.407470 0.591193
vt 0.405845 0.260675
vt 0.381779 0.592003
vt 0.380148 0.260118
vt 0.355984 0.592813
vt 0.354347 0.259562
vt 0.330082 0.593624
vt 0.328438 0.259005
vt 0.304075 0.594435
vt 0.302424 0.258450
vt 0.277961 0.595247
vt 0.276303 0.257895
vt 0.251742 0.596059
vt 0.250077 0.257340
vt 0.225416 0.596872
vt 0.223745 0.256786
vt 0.198984 0.597685
vt 0.197306 0.256233
vt 0.172496 0.597815
vt 0.170818 0.256363
vt 0.146008 0.597945
vt 0.144330 0.256493
vt 0.119520 0.598076
vt 0.117842 0.256623
vt 0.093032 0.598206
vt 0.091354 0.256753
vt 0.066544 0.598336
vt 0.064866 0.256883
vt 0.040055 0.598466
vt 0.038377 0.257014
vt 0.842230 0.269255
vt 0.851404 0.575763
vt 0.826586 0.575156
vt 0.827411 0.272835
vt 0.804081 0.578309
vt 0.802564 0.269661
vt 0.780088 0.579110
vt 0.778565 0.269095
vt 0.755989 0.579912
vt 0.754459 0.268530
vt 0.731784 0.580714
vt 0.730247 0.267966
vt 0.707473 0.581517
vt 0.705930 0.267402
vt 0.683056 0.582321
vt 0.681505 0.266838
vt 0.699540 0.731527
vt 0.698327 0.705847
vt 0.702147 0.680426
vt 0.710854 0.656237
vt 0.724112 0.634212
vt 0.741412 0.615197
vt 0.762090 0.599922
vt 0.785350 0.588974
vt 0.877752 0.585228
vt 0.902356 0.600075
vt 0.923592 0.619437
vt 0.940643 0.642570
vt 0.952853 0.668586
vt 0.959051 0.693534
vt 0.960265 0.719213
vt 0.956444 0.744636
vt 0.947738 0.768824
vt 0.934479 0.790850
vt 0.917179 0.809865
vt 0.896501 0.825140
vt 0.873241 0.836087
vt 0.848292 0.842287
vt 0.822613 0.843499
vt 0.797191 0.839679
vt 0.773002 0.830972
vt 0.750977 0.817714
vt 0.731961 0.800414
vt 0.716686 0.779736
vt 0.705739 0.756476
vt 0.658533 0.583125
vt 0.656976 0.266275
vt 0.715129 0.127077
vt 0.721166 0.103660
vt 0.731654 0.081872
vt 0.746191 0.062548
vt 0.764219 0.046432
vt 0.785046 0.034143
vt 0.807868 0.026152
vt 0.831813 0.022767
vt 0.855956 0.024120
vt 0.879371 0.030155
vt 0.901161 0.040644
vt 0.920484 0.055182
vt 0.936601 0.073210
vt 0.948890 0.094035
vt 0.956881 0.116859
vt 0.960265 0.140802
vt 0.958913 0.164946
vt 0.952877 0.188362
vt 0.942389 0.210150
vt 0.927851 0.229474
vt 0.909823 0.245590
vt 0.888997 0.257880
vt 0.866174 0.265870
vt 0.776445 0.255664
vt 0.753558 0.236841
vt 0.737442 0.218812
vt 0.725152 0.197987
vt 0.717162 0.175163
vt 0.713778 0.151220
vt 0.192220 0.957765
vt 0.203455 0.870096
vt 0.237511 0.878834
vt 0.226595 0.962128
vt 0.296956 0.968817
vt 0.298904 0.888907
vt 0.328930 0.887693
vt 0.333245 0.968595
vt 0.358825 0.882269
vt 0.369573 0.965377
vt 0.389974 0.873770
vt 0.405561 0.959874
vt 0.424319 0.865093
vt 0.441158 0.953308
vt 0.121763 0.951179
vt 0.129130 0.863183
vt 0.166015 0.863816
vt 0.157454 0.954167
vt 0.268701 0.885794
vt 0.244738 0.809597
vt 0.273977 0.811854
vt 0.261326 0.966286
vt 0.209412 0.806542
vt 0.207838 0.762714
vt 0.243808 0.752877
vt 0.300278 0.812451
vt 0.325905 0.813181
vt 0.168079 0.805321
vt 0.127826 0.808226
vt 0.383042 0.810803
vt 0.418775 0.809732
vt 0.352659 0.812570
vt 0.166038 0.772483
vt 0.156927 0.731844
vt 0.192793 0.718445
vt 0.386919 0.763275
vt 0.421361 0.776607
vt 0.301762 0.745606
vt 0.328284 0.747154
vt 0.124063 0.776164
vt 0.356173 0.752913
vt 0.274259 0.747022
vt 0.161162 0.636129
vt 0.184178 0.666161
vt 0.182506 0.703961
vt 0.119410 0.736761
vt 0.087511 0.716413
vt 0.076153 0.680320
vt 0.090653 0.645371
vt 0.124225 0.627918
vt 0.377338 0.697376
vt 0.409264 0.718834
vt 0.261904 0.683762
vt 0.301465 0.675150
vt 0.226468 0.700292
vt 0.441158 0.741063
vt 0.341534 0.681141
vt 0.445144 0.781933
vt 0.441447 0.748213
vt 0.462466 0.739931
vt 0.464929 0.762402
vt 0.447383 0.714813
vt 0.466421 0.717674
vt 0.458462 0.682751
vt 0.473804 0.696308
vt 0.475819 0.653605
vt 0.485370 0.676885
vt 0.502652 0.632851
vt 0.503252 0.663055
vt 0.536214 0.627918
vt 0.525617 0.659768
vt 0.527362 0.821360
vt 0.493703 0.825584
vt 0.497288 0.791490
vt 0.519718 0.788676
vt 0.463263 0.810611
vt 0.477004 0.781512
vt 0.471630 0.757628
vt 0.480407 0.736797
vt 0.500522 0.726480
vt 0.522561 0.731507
vt 0.536214 0.749524
vt 0.535091 0.772102
vt 0.478297 0.779229
vn -0.0000 -0.6857 -0.7279
vn -0.0000 0.6857 -0.7279
vn 0.1420 0.6857 -0.7139
vn 0.1420 -0.6857 -0.7139
vn 0.2785 0.6857 -0.6725
vn 0.2785 -0.6857 -0.6725
vn 0.4044 0.6857 -0.6052
vn 0.4044 -0.6857 -0.6052
vn 0.5147 0.6857 -0.5147
vn 0.5147 -0.6857 -0.5147
vn 0.6052 0.6857 -0.4044
vn 0.6052 -0.6857 -0.4044
vn 0.6725 0.6857 -0.2786
vn 0.6725 -0.6857 -0.2786
vn 0.7139 0.6857 -0.1420
vn 0.7139 -0.6857 -0.1420
vn 0.7279 0.6857 0.0000
vn 0.7279 -0.6857 -0.0000
vn 0.7139 0.6857 0.1420
vn 0.7139 -0.6857 0.1420
vn 0.6725 0.6857 0.2786
vn 0.6725 -0.6857 0.2786
vn 0.6052 0.6857 0.4044
vn 0.6052 -0.6857 0.4044
vn 0.5147 0.6857 0.5147
vn 0.5147 -0.6857 0.5147
vn 0.4044 0.6857 0.6052
vn 0.4044 -0.6857 0.6052
vn 0.2785 0.6857 0.6725
vn 0.2785 -0.6857 0.6725
vn 0.1420 0.6857 0.7139
vn 0.1420 -0.6857 0.7139
vn -0.0000 0.6857 0.7279
vn -0.0000 -0.6857 0.7279
vn -0.1420 0.6857 0.7139
vn -0.1420 -0.6857 0.7139
vn -0.2785 0.6857 0.6725
vn -0.2785 -0.6857 0.6725
vn -0.4044 0.6857 0.6052
vn -0.4044 -0.6857 0.6052
vn -0.5147 0.6857 0.5147
vn -0.5147 -0.6857 0.5147
vn -0.6052 0.6857 0.4044
vn -0.6052 -0.6857 0.4044
vn -0.6725 0.6857 0.2786
vn -0.6725 -0.6857 0.2786
vn -0.7139 0.6857 0.1420
vn -0.7139 -0.6857 0.1420
vn -0.7279 0.6857 0.0000
vn -0.7279 -0.6857 0.0000
vn -0.7139 0.6857 -0.1420
vn -0.7139 -0.6857 -0.1420
vn -0.6725 0.6857 -0.2786
vn -0.6725 -0.6857 -0.2786
vn -0.6052 0.6857 -0.4044
vn -0.6052 -0.6857 -0.4044
vn -0.5147 0.6857 -0.5147
vn -0.5147 -0.6857 -0.5147
vn -0.4044 0.6857 -0.6052
vn -0.4044 -0.6857 -0.6052
vn -0.2785 0.6857 -0.6725
vn -0.2785 -0.6857 -0.6725
vn -0.1420 0.6857 -0.7139
vn -0.1420 -0.6857 -0.7139
vn -0.3484 -0.8143 -0.4643
vn -0.6249 -0.0753 -0.7771
vn 0.0262 0.0065 -0.9996
vn 0.0749 -0.8515 -0.5190
vn 0.3256 -0.9449 0.0338
vn 0.9788 0.1163 -0.1684
vn 0.8672 0.1042 0.4869
vn 0.3869 -0.9216 0.0298
vn 0.3639 0.0471 0.9302
vn 0.2627 -0.8763 0.4038
vn -0.3180 -0.0363 0.9474
vn -0.1430 -0.8302 0.5388
vn -0.8544 -0.1047 0.5090
vn -0.5061 -0.8039 0.3124
vn -0.9768 -0.1204 -0.1770
vn -0.5914 -0.7988 -0.1099
vn 0.6550 0.0807 -0.7513
vn 0.0471 0.0297 -0.9984
vn 0.5905 0.3320 -0.7356
vn 0.3763 -0.9005 -0.2179
vn -0.5510 -0.2806 -0.7859
vn -0.2782 -0.5123 -0.8125
vn 0.0388 0.0632 -0.9972
vn 0.8602 0.4832 -0.1632
vn 0.7679 0.4315 0.4735
vn -0.8853 -0.4297 -0.1779
vn -0.7691 -0.3805 0.5136
vn -0.2643 -0.1368 0.9547
vn 0.3427 0.1931 0.9194
vn -0.4867 -0.8515 -0.1950
vn -0.6722 -0.7291 -0.1287
vn -0.6615 -0.4781 -0.5778
vn -0.1217 -0.2365 0.9640
vn -0.4091 -0.7292 0.5486
vn 0.4404 0.8826 -0.1644
vn 0.3953 0.7859 0.4756
vn 0.1866 0.3533 0.9167
vn 0.3085 0.6029 -0.7357
vn -0.6055 0.5231 -0.5997
vn -0.6354 0.0145 -0.7721
vn -0.6688 -0.6431 0.3731
vn -0.6500 -0.2504 0.7175
vn -0.6197 0.2839 0.7317
vn -0.5950 0.7014 0.3926
vn -0.5894 0.7963 -0.1365
vn -0.4569 -0.7737 0.4389
vn -0.0633 -0.8627 0.5018
vn -0.6856 -0.7207 0.1024
vn -0.6067 -0.7389 -0.2932
vn -0.2621 -0.8185 -0.5111
vn 0.1038 -0.8975 -0.4286
vn 0.2984 -0.9343 -0.1948
vn 0.3336 -0.9405 0.0653
vn 0.2239 -0.9208 0.3194
usemtl Material.001
s 1
f 1/1/1 2/2/2 3/3/3 4/4/4
f 4/4/4 3/3/3 5/5/5 6/6/6
f 6/6/6 5/5/5 7/7/7 8/8/8
f 8/8/8 7/7/7 9/9/9 10/10/10
f 10/10/10 9/9/9 11/11/11 12/12/12
f 12/12/12 11/11/11 13/13/13 14/14/14
f 14/14/14 13/13/13 15/15/15 16/16/16
f 16/16/16 15/15/15 17/17/17 18/18/18
f 18/18/18 17/17/17 19/19/19 20/20/20
f 20/20/20 19/19/19 21/21/21 22/22/22
f 22/22/22 21/21/21 23/23/23 24/24/24
f 24/24/24 23/23/23 25/25/25 26/26/26
f 26/26/26 25/25/25 27/27/27 28/28/28
f 28/28/28 27/27/27 29/29/29 30/30/30
f 30/30/30 29/29/29 31/31/31 32/32/32
f 32/32/32 31/31/31 33/33/33 34/34/34
f 34/34/34 33/33/33 35/35/35 36/36/36
f 36/36/36 35/35/35 37/37/37 38/38/38
f 38/38/38 37/37/37 39/39/39 40/40/40
f 40/40/40 39/39/39 41/41/41 42/42/42
f 42/42/42 41/41/41 43/43/43 44/44/44
f 44/44/44 43/43/43 45/45/45 46/46/46
f 46/46/46 45/45/45 47/47/47 48/48/48
f 48/49/48 47/50/47 49/51/49 50/52/50
f 50/52/50 49/51/49 51/53/51 52/54/52
f 52/54/52 51/53/51 53/55/53 54/56/54
f 54/56/54 53/55/53 55/57/55 56/58/56
f 56/58/56 55/57/55 57/59/57 58/60/58
f 58/60/58 57/59/57 59/61/59 60/62/60
f 60/62/60 59/61/59 61/63/61 62/64/62
f 3/65/3 2/66/2 63/67/63 61/68/61 59/69/59 57/70/57 55/71/55 53/72/53 51/53/51 49/51/49 47/50/47 45/73/45 43/74/43 41/75/41 39/76/39 37/77/37 35/78/35 33/79/33 31/80/31 29/81/29 27/82/27 25/83/25 23/84/23 21/85/21 19/86/19 17/87/17 15/88/15 13/89/13 11/90/11 9/91/9 7/92/7 5/93/5
f 62/64/62 61/63/61 63/94/63 64/95/64
f 64/95/64 63/94/63 2/2/2 1/1/1
f 1/96/1 4/97/4 6/98/6 8/99/8 10/100/10 12/101/12 14/102/14 16/103/16 18/104/18 20/105/20 22/106/22 24/107/24 26/108/26 28/109/28 30/110/30 32/111/32 34/112/34 36/113/36 38/114/38 40/115/40 42/116/42 44/117/44 46/118/46 48/49/48 50/52/50 52/54/52 54/119/54 56/120/56 58/121/58 60/122/60 62/123/62 64/124/64
usemtl None
f 65/125/65 66/126/66 67/127/67 68/128/68
f 69/129/69 70/130/70 71/131/71 72/132/72
f 72/132/72 71/131/71 73/133/73 74/134/74
f 74/134/74 73/133/73 75/135/75 76/136/76
f 76/136/76 75/135/75 77/137/77 78/138/78
f 78/139/78 77/140/77 79/141/79 80/142/80
f 80/142/80 79/141/79 66/126/66 65/125/65
f 81/143/81 67/127/67 82/144/82 83/145/83
f 84/146/84 81/143/81 70/130/70 69/129/69
f 68/128/68 67/127/67 81/143/81 84/146/84
f 82/144/82 85/147/85 86/148/86 87/149/87
f 71/131/71 70/130/70 88/150/88 89/151/89
f 70/130/70 81/143/81 83/145/83 88/150/88
f 67/127/67 66/126/66 85/147/85 82/144/82
f 66/126/66 79/141/79 90/152/90 85/147/85
f 79/141/79 77/140/77 91/153/91 90/152/90
f 77/137/77 75/135/75 92/154/92 91/155/91
f 75/135/75 73/133/73 93/156/93 92/154/92
f 73/133/73 71/131/71 89/151/89 93/156/93
f 86/148/86 94/157/94 95/158/95 96/159/96
f 91/155/91 92/154/92 97/160/97 98/161/98
f 89/151/89 88/150/88 99/162/99 100/163/100
f 90/152/90 91/153/91 98/164/98 94/157/94
f 93/156/93 89/151/89 100/163/100 101/165/101
f 83/145/83 82/144/82 87/149/87 102/166/102
f 85/147/85 90/152/90 94/157/94 86/148/86
f 92/154/92 93/156/93 101/165/101 97/160/97
f 88/150/88 83/145/83 102/166/102 99/162/99
f 103/167/103 104/168/104 96/169/96 95/158/95 105/170/105 106/171/106 107/172/107 108/173/108 109/174/109
f 97/160/97 101/165/101 107/175/107 106/176/106
f 99/162/99 102/166/102 103/177/103 109/178/109
f 87/149/87 86/148/86 96/159/96 104/179/104
f 98/161/98 97/160/97 106/176/106 105/180/105
f 100/163/100 99/162/99 109/178/109 108/181/108
f 94/157/94 98/164/98 105/170/105 95/158/95
f 101/165/101 100/163/100 108/181/108 107/175/107
f 102/166/102 87/149/87 104/179/104 103/177/103
f 68/182/68 84/183/84 110/184/110 111/185/111
f 84/183/84 69/186/69 112/187/112 110/184/110
f 69/186/69 72/188/72 113/189/113 112/187/112
f 72/188/72 74/190/74 114/191/114 113/189/113
f 74/190/74 76/192/76 115/193/115 114/191/114
f 76/192/76 78/194/78 116/195/116 115/193/115
f 78/196/78 80/197/80 117/198/117 116/199/116
f 80/197/80 65/200/65 118/201/118 117/198/117
f 65/200/65 68/182/68 111/185/111 118/201/118
f 111/202/111 110/203/110 112/204/112 113/205/113 114/206/114 115/207/115 116/199/116 117/198/117 118/208/118
o Cube_Cube.001
v -0.388059 0.053443 0.038138
v -0.403188 0.128204 0.038138
v -0.403188 0.128204 -0.038138
v -0.388059 0.053443 -0.038138
v -0.328427 0.143333 -0.038138
v -0.313298 0.068571 -0.038138
v -0.313298 0.068571 0.038138
v -0.328427 0.143333 0.038138
v -0.328427 0.143333 0.038138
v -0.313298 0.068571 0.038138
v -0.316199 0.082909 -0.023510
v -0.325525 0.128995 -0.023510
v -0.117321 0.171127 -0.023510
v -0.107995 0.125042 -0.023510
v -0.328427 0.143333 -0.038138
v -0.313298 0.068571 -0.038138
v -0.316199 0.082909 0.023510
v -0.325525 0.128995 0.023510
v -0.117321 0.171127 0.023510
v -0.107995 0.125042 0.023510
vt 0.275333 0.734837
vt 0.263359 0.734251
vt 0.259935 0.724495
vt 0.271535 0.721971
vt 0.081753 0.551706
vt 0.428704 0.558036
vt 0.434419 0.881458
vt 0.084777 0.945033
vt 0.091234 0.937501
vt 0.428628 0.876469
vt 0.000107 0.477458
vt 0.000107 0.358120
vt 0.539243 0.358120
vt 0.539243 0.477455
vt 0.074864 0.545332
vt 0.434419 0.552076
vt 0.145114 0.477672
vt 0.366757 0.481829
vt 0.497589 0.615244
vt 0.497589 0.818290
vt 0.006218 0.870281
vt 0.000107 0.623887
vt 0.379556 0.960703
vt 0.164024 0.999893
vt 0.658578 0.358120
vt 0.539243 0.238782
vt 0.658578 0.238782
vt 0.000107 0.119445
vt 0.000108 0.000107
vt 0.539244 0.000109
vt 0.539243 0.119447
vt 0.000107 0.238782
vn -0.4514 -0.6804 0.5774
vn -0.6804 0.4514 0.5774
vn -0.6804 0.4514 -0.5774
vn -0.4514 -0.6804 -0.5774
vn -0.1974 0.9754 -0.0979
vn 0.8466 -0.2864 0.4486
vn 0.4478 -0.6409 0.6235
vn 0.3055 0.0618 0.6235
vn -0.1795 0.8871 0.4252
vn 0.0433 -0.2137 0.6542
vn 0.9464 -0.1161 -0.3015
vn 0.8267 0.4749 -0.3015
vn 0.4514 0.6804 -0.5774
vn 0.6804 -0.4514 -0.5774
vn 0.0854 0.8574 0.5075
vn 0.2487 0.0503 0.5075
vn 0.9464 -0.1161 0.3015
vn 0.8267 0.4749 0.3015
vn 0.4514 0.6804 0.5774
vn 0.6804 -0.4514 0.5774
usemtl None
s 1
f 119/209/119 120/210/120 121/211/121 122/212/122
f 122/212/122 121/211/121 123/213/123 124/214/124
f 125/215/125 126/216/126 127/217/127 128/218/128
f 128/218/128 127/217/127 120/210/120 119/209/119
f 122/212/122 124/214/124 128/218/128 119/209/119
f 123/213/123 121/211/121 120/210/120 127/217/127
f 129/219/129 130/220/130 131/221/131 132/222/132
f 133/223/133 134/224/134 124/214/124 123/213/123
f 126/216/126 133/223/133 123/213/123 127/217/127
f 130/225/130 129/226/129 134/224/134 133/223/133
f 125/215/125 134/224/134 129/227/129 135/228/135
f 133/223/133 126/216/126 136/229/136 130/230/130
f 126/216/126 125/215/125 135/231/135 136/232/136
f 134/224/134 125/215/125 128/218/128 124/214/124
f 132/233/132 131/221/131 137/234/137 138/235/138
f 135/236/135 129/237/129 132/238/132 138/239/138
f 136/240/136 135/236/135 138/239/138 137/234/137
f 130/220/130 136/240/136 137/234/137 131/221/131
